@startuml
skinparam class {
BackgroundColor PaleGreen
ArrowColor SeaGreen
BorderColor SpringGreen
BackgroundColor<<Impl>> Wheat
BorderColor<<Impl>> Tomato
}

package "Client Process" <<Rectangle>> #Lavender {
  entity DBusProxy
}

package "Service Process" <<Rectangle>> #LightBlue {
  entity Base
  entity Implementation
    entity DBusAdapter
}

interface Interface {
 <METHODS> 
 <PROPERTIES>
 <OBSERVERS>
}

entity Base {
 PROPERTIES
 PROPRTIES OBSERVERS
 SIGNAL OBSERVERS
}

Base -o Implementation: embeds
Interface <|.. Implementation : implements
Interface <|.. Base : implements

left to right direction

together {
() METHODS
() SIGNALS
() PROPERTIES
}

DBusAdapter -> METHODS
DBusAdapter --> SIGNALS
DBusAdapter --> PROPERTIES

METHODS -> DBusProxy 
SIGNALS --> DBusProxy 
PROPERTIES --> DBusProxy 

entity DBusAdapter {
 Init(Interface)
 Export()
}

entity DBusProxy {
 Init()
 ConnectToRemoteObject()
}

entity Implementation <<Impl>> {
 <METHODS>
 <SET_PROPERTY_CALLBACK>
}

DBusAdapter -o Implementation: aggregates


legend
|<back:PaleGreen>   </back>| Auto-generated |
|<back:Wheat>   </back>| to be implemented |
endlegend

@enduml